<svg xmlns="http://www.w3.org/2000/svg" width="30" height="24.949" viewBox="0 0 30 24.949">
  <path id="icon-home" d="M1.1,53.617,4.247,51.5V65.905a2.133,2.133,0,0,0,2.131,2.131H23.625a2.133,2.133,0,0,0,2.131-2.131V51.5l3.15,2.118a.7.7,0,1,0,.785-1.167L16.418,43.528a2.5,2.5,0,0,0-2.833,0L.312,52.451A.7.7,0,0,0,1.1,53.617ZM18.258,66.63H11.745v-10h6.514ZM14.369,44.7a1.1,1.1,0,0,1,1.264,0l8.744,5.878a.7.7,0,0,0-.027.193V65.905a.725.725,0,0,1-.725.725H19.665V56.486A1.267,1.267,0,0,0,18.4,55.22H11.6a1.267,1.267,0,0,0-1.266,1.266V66.63H6.378a.725.725,0,0,1-.725-.725V50.766a.7.7,0,0,0-.027-.193Z" transform="translate(-0.002 -43.087)" fill="#16b559"/>
</svg>
