<svg xmlns="http://www.w3.org/2000/svg" width="30" height="30.313" viewBox="0 0 30 30.313">
  <path id="icon-m2" d="M-16424.246,19561.313a.716.716,0,0,1-.717-.717v-24.934a.716.716,0,0,1,.717-.717h24.621a.716.716,0,0,1,.717.717v17.852a.716.716,0,0,1-.717.717h-4.844v6.365a.716.716,0,0,1-.715.717Zm.717-1.434h17.629v-6.365a.716.716,0,0,1,.717-.717h4.842v-16.418h-23.187Zm-4.789,1.307a.592.592,0,0,1-.59-.59.592.592,0,0,1,.59-.592h.221v-23.752h-.221a.592.592,0,0,1-.59-.59.592.592,0,0,1,.59-.592h1.631a.593.593,0,0,1,.592.592.592.592,0,0,1-.592.59h-.234V19560h.234a.593.593,0,0,1,.592.592.592.592,0,0,1-.592.59Zm9.67-9.574v-6.533h1.51v.469a2.221,2.221,0,0,1,1.5-.607,1.829,1.829,0,0,1,1.775.928,2.914,2.914,0,0,1,.885-.717,2.266,2.266,0,0,1,.924-.211c.957,0,2.09.426,2.09,2.461v4.207h-1.508v-4.164a1.767,1.767,0,0,0-.182-.965.617.617,0,0,0-.557-.232,1.823,1.823,0,0,0-1.342.844v4.518h-1.5v-4.164a1.748,1.748,0,0,0-.182-.965.628.628,0,0,0-.564-.232,1.822,1.822,0,0,0-1.332.844v4.521Zm8.266-7.588v-.209a1.36,1.36,0,0,1,.254-.783,4.041,4.041,0,0,1,.836-.828,4.915,4.915,0,0,0,.754-.7.806.806,0,0,0,.168-.5.464.464,0,0,0-.117-.346.49.49,0,0,0-.363-.117.508.508,0,0,0-.35.125.57.57,0,0,0-.16.4l-.014.193h-.93l.016-.229a1.4,1.4,0,0,1,.438-.939,1.442,1.442,0,0,1,1.008-.354,1.4,1.4,0,0,1,1.029.365,1.252,1.252,0,0,1,.371.916,1.459,1.459,0,0,1-.27.859,5.817,5.817,0,0,1-.945.922c-.186.156-.314.273-.408.363h1.631v.867Zm10.076-10.8v-.236h-23.35v.236a.591.591,0,0,1-.59.59.588.588,0,0,1-.59-.59v-1.631a.592.592,0,0,1,.59-.59.592.592,0,0,1,.59.59v.219h23.35v-.219a.592.592,0,0,1,.59-.59.592.592,0,0,1,.59.59v1.631a.591.591,0,0,1-.59.59A.591.591,0,0,1-16400.307,19533.221Z" transform="translate(16428.908 -19531)" fill="#16b559"/>
</svg>
