<svg xmlns="http://www.w3.org/2000/svg" width="168.826" height="45" viewBox="0 0 168.826 45">
  <g id="menu_logo" transform="translate(9.057 10.013)">
    <path id="Path_91619" data-name="Path 91619" d="M2369.723,4300.4a46.39,46.39,0,0,1-8.834-6.07,31.327,31.327,0,0,1-6.114-7.024,17.673,17.673,0,0,1-2.832-9.308l.028-21.683a.864.864,0,0,1,.561-.81c17.47-.02,17.686-.02,35.241,0,0,0,.561.449.561.81l-.056,21.683a17.673,17.673,0,0,1-2.832,9.308,31.3,31.3,0,0,1-6.115,7.024,46.35,46.35,0,0,1-8.834,6.07.862.862,0,0,1-.774,0Zm-16.05-22.4c0,12.977,16.438,15.085,16.438,15.085h.028s16.409-2.108,16.409-15.085l.056-20.818h-32.9Zm10.538,4.68a.252.252,0,0,1-.083-.193v-.015a.268.268,0,0,1,.146-.216,10.148,10.148,0,0,0,2.345-1.792.379.379,0,0,1,.482-.06,5.9,5.9,0,0,0,.795.431,5.5,5.5,0,0,0,5.2-.376h0l.088-.056a.378.378,0,0,1,.478.056,10.628,10.628,0,0,0,2.352,1.8.257.257,0,0,1,.134.226h0a.255.255,0,0,1-.091.2.252.252,0,0,1-.21.055,8.716,8.716,0,0,1-2.253-.9.33.33,0,0,0-.3,0,6.96,6.96,0,0,1-6.3,0,.331.331,0,0,0-.3,0q-.152.081-.306.159a7.776,7.776,0,0,1-1.955.737h-.009l-.012,0h-.024A.26.26,0,0,1,2364.211,4282.673Zm11.628-2.642a4.651,4.651,0,0,1-2.727-1.188,4.315,4.315,0,0,1-5.951,0,4.659,4.659,0,0,1-2.727,1.187.457.457,0,0,1-.057,0,.877.877,0,0,1-.822-.557l-1.753-4.487,0-.012a1.334,1.334,0,0,1,.049-.993,1.271,1.271,0,0,1,.794-.693l.886-.353v-3.124a2.4,2.4,0,0,1,2.4-2.4h1.2v-.3a1.5,1.5,0,0,1,1.5-1.5h3.006a1.5,1.5,0,0,1,1.5,1.5v.3h1.2a2.4,2.4,0,0,1,2.4,2.4v3.12l.895.357a1.261,1.261,0,0,1,.785.688,1.348,1.348,0,0,1,.04,1.026l-1.752,4.469a.88.88,0,0,1-.817.556Zm-11.109-10.215v2.423a.149.149,0,0,0,.065.124.152.152,0,0,0,.14.017l4.736-1.888.021-.007a1.488,1.488,0,0,1,.893,0l.042.015,4.716,1.877a.147.147,0,0,0,.14-.016.149.149,0,0,0,.066-.124v-2.421a1.2,1.2,0,0,0-1.2-1.2h-8.415A1.2,1.2,0,0,0,2364.73,4269.816Z" transform="translate(-2361 -4265.5)" fill="#0a67b1"/>
    <path id="Path_91615" data-name="Path 91615" d="M13.017,0H9.554L3.964-9.721H3.885q.167,2.575.167,3.674V0H1.617V-12.85H5.054l5.581,9.624H10.7q-.132-2.5-.132-3.542V-12.85h2.452ZM22.28,0l-.519-1.336h-.07A3.959,3.959,0,0,1,20.3-.154a4.5,4.5,0,0,1-1.868.33A3.02,3.02,0,0,1,16.2-.633a3.105,3.105,0,0,1-.813-2.3,2.593,2.593,0,0,1,1.094-2.307,6.341,6.341,0,0,1,3.3-.822l1.705-.053v-.431A1.336,1.336,0,0,0,19.96-8.042a6.969,6.969,0,0,0-2.769.712L16.3-9.141a7.988,7.988,0,0,1,3.762-.888,4.686,4.686,0,0,1,3.032.861,3.183,3.183,0,0,1,1.055,2.619V0Zm-.791-4.553-1.037.035a3.321,3.321,0,0,0-1.74.422,1.325,1.325,0,0,0-.571,1.178q0,1.134,1.3,1.134a2.06,2.06,0,0,0,1.49-.536,1.883,1.883,0,0,0,.558-1.424ZM33.75,0H25.989V-1.582l4.553-6.2h-4.28V-9.826h7.33v1.74l-4.43,6.038H33.75ZM43.77,0l-.756-3.437-1.02-4.342h-.062L40.14,0H37.257L34.462-9.826h2.672l1.134,4.351q.272,1.169.554,3.226h.053a18.061,18.061,0,0,1,.308-2.118l.141-.747,1.213-4.711h2.953L44.64-5.115q.035.193.11.571t.145.8q.07.426.127.835t.066.655h.053q.079-.633.281-1.736t.29-1.49L46.89-9.826h2.628L46.688,0ZM57.34,0l-.519-1.336h-.07A3.959,3.959,0,0,1,55.358-.154a4.5,4.5,0,0,1-1.868.33,3.02,3.02,0,0,1-2.228-.809,3.105,3.105,0,0,1-.813-2.3,2.593,2.593,0,0,1,1.094-2.307,6.341,6.341,0,0,1,3.3-.822l1.705-.053v-.431A1.336,1.336,0,0,0,55.02-8.042a6.969,6.969,0,0,0-2.769.712l-.888-1.811a7.988,7.988,0,0,1,3.762-.888,4.686,4.686,0,0,1,3.032.861,3.183,3.183,0,0,1,1.055,2.619V0Zm-.791-4.553-1.037.035a3.321,3.321,0,0,0-1.74.422A1.325,1.325,0,0,0,53.2-2.918q0,1.134,1.3,1.134a2.06,2.06,0,0,0,1.49-.536,1.883,1.883,0,0,0,.558-1.424ZM72.3,0,69.205-10.081h-.079q.167,3.076.167,4.1V0H66.858V-12.85h3.709l3.041,9.826h.053l3.226-9.826H80.6V0h-2.54V-6.082q0-.431.013-.993t.119-2.988h-.079L74.795,0ZM83.5-12.366q0-1.31,1.459-1.31t1.459,1.31a1.277,1.277,0,0,1-.365.971,1.533,1.533,0,0,1-1.094.347Q83.5-11.048,83.5-12.366ZM86.3,0H83.619V-9.826H86.3Zm9.053,0-.519-1.336h-.07A3.959,3.959,0,0,1,93.371-.154,4.5,4.5,0,0,1,91.5.176a3.02,3.02,0,0,1-2.228-.809,3.105,3.105,0,0,1-.813-2.3,2.593,2.593,0,0,1,1.094-2.307,6.341,6.341,0,0,1,3.3-.822l1.705-.053v-.431a1.336,1.336,0,0,0-1.529-1.494,6.969,6.969,0,0,0-2.769.712l-.888-1.811a7.988,7.988,0,0,1,3.762-.888,4.686,4.686,0,0,1,3.032.861,3.183,3.183,0,0,1,1.055,2.619V0Zm-.791-4.553-1.037.035a3.321,3.321,0,0,0-1.74.422,1.325,1.325,0,0,0-.571,1.178q0,1.134,1.3,1.134A2.06,2.06,0,0,0,94-2.32a1.883,1.883,0,0,0,.558-1.424ZM106.84-2.918a2.705,2.705,0,0,1-1.05,2.3,5.19,5.19,0,0,1-3.142.791,9.869,9.869,0,0,1-1.828-.145A6.915,6.915,0,0,1,99.4-.4V-2.61a9.345,9.345,0,0,0,1.683.589,6.815,6.815,0,0,0,1.648.237q1.459,0,1.459-.844A.7.7,0,0,0,104-3.142a2.8,2.8,0,0,0-.668-.448q-.475-.25-1.266-.584a7.951,7.951,0,0,1-1.666-.879,2.474,2.474,0,0,1-.773-.927,3.061,3.061,0,0,1-.242-1.288A2.334,2.334,0,0,1,100.4-9.294a4.945,4.945,0,0,1,2.878-.716,8.17,8.17,0,0,1,3.454.773L105.926-7.3q-.738-.316-1.38-.519a4.333,4.333,0,0,0-1.31-.2q-1.187,0-1.187.642a.754.754,0,0,0,.382.624,10.4,10.4,0,0,0,1.674.782,7.778,7.778,0,0,1,1.688.87,2.573,2.573,0,0,1,.791.932A2.863,2.863,0,0,1,106.84-2.918Zm6.231.958a5.811,5.811,0,0,0,1.688-.308v2A6.017,6.017,0,0,1,112.3.176a3.012,3.012,0,0,1-2.342-.813,3.539,3.539,0,0,1-.734-2.439V-7.813h-1.283V-8.947l1.477-.9.773-2.074H111.9v2.092h2.751v2.013H111.9v4.737a1.046,1.046,0,0,0,.321.844A1.266,1.266,0,0,0,113.071-1.96ZM122.985,0l-.519-1.336h-.07A3.959,3.959,0,0,1,121-.154a4.5,4.5,0,0,1-1.868.33,3.02,3.02,0,0,1-2.228-.809,3.105,3.105,0,0,1-.813-2.3,2.593,2.593,0,0,1,1.094-2.307,6.341,6.341,0,0,1,3.3-.822l1.705-.053v-.431a1.336,1.336,0,0,0-1.529-1.494,6.969,6.969,0,0,0-2.769.712l-.888-1.811a7.988,7.988,0,0,1,3.762-.888,4.686,4.686,0,0,1,3.032.861,3.183,3.183,0,0,1,1.055,2.619V0Zm-.791-4.553-1.037.035a3.321,3.321,0,0,0-1.74.422,1.325,1.325,0,0,0-.571,1.178q0,1.134,1.3,1.134a2.06,2.06,0,0,0,1.49-.536,1.883,1.883,0,0,0,.558-1.424Z" transform="translate(34.911 18.506)" fill="#172b4d"/>
  </g>
</svg>
